<mxfile host="app.diagrams.net" agent="Mozilla/5.0 (Windows NT 10.0; Win64; x64) AppleWebKit/537.36 (KHTML, like Gecko) Chrome/132.0.0.0 Safari/537.36 OPR/117.0.0.0" version="26.2.13" pages="2">
  <diagram name="Marítimo" id="BQZ_Hn4HJo08z4jYkva2">
    <mxGraphModel dx="2459" dy="2060" grid="1" gridSize="10" guides="1" tooltips="1" connect="1" arrows="1" fold="1" page="1" pageScale="1" pageWidth="827" pageHeight="1169" math="0" shadow="0">
      <root>
        <mxCell id="0" />
        <mxCell id="1" parent="0" />
        <mxCell id="shpKcNtoOfC2hMuRhVAY-9" value="" style="shape=xor;whiteSpace=wrap;html=1;rotation=90;fillColor=#6a00ff;fontColor=#ffffff;strokeColor=#3700CC;" parent="1" vertex="1">
          <mxGeometry x="400" y="240" width="130" height="840" as="geometry" />
        </mxCell>
        <mxCell id="shpKcNtoOfC2hMuRhVAY-10" value="" style="shape=xor;whiteSpace=wrap;html=1;rotation=-90;fillColor=#6a00ff;fontColor=#ffffff;strokeColor=#3700CC;" parent="1" vertex="1">
          <mxGeometry x="400" y="-400" width="130" height="840" as="geometry" />
        </mxCell>
        <mxCell id="shpKcNtoOfC2hMuRhVAY-7" value="" style="shape=xor;whiteSpace=wrap;html=1;rotation=-180;fillColor=#6a00ff;fontColor=#ffffff;strokeColor=#3700CC;" parent="1" vertex="1">
          <mxGeometry x="-140" y="70" width="130" height="580" as="geometry" />
        </mxCell>
        <mxCell id="shpKcNtoOfC2hMuRhVAY-6" value="" style="shape=xor;whiteSpace=wrap;html=1;fillColor=#6a00ff;fontColor=#ffffff;strokeColor=#3700CC;" parent="1" vertex="1">
          <mxGeometry x="930" y="70" width="130" height="580" as="geometry" />
        </mxCell>
        <mxCell id="sDvQVDbW3PLoVkLUSOU8-1" value="" style="rounded=0;whiteSpace=wrap;html=1;fillColor=#008a00;strokeColor=#005700;fontColor=#ffffff;" parent="1" vertex="1">
          <mxGeometry x="110" y="180" width="730" height="280" as="geometry" />
        </mxCell>
        <mxCell id="sDvQVDbW3PLoVkLUSOU8-2" value="1º Equipa Apeada&lt;div&gt;- ECO DAE&lt;/div&gt;&lt;div&gt;- Bala O2&lt;/div&gt;" style="ellipse;whiteSpace=wrap;html=1;fillColor=#dae8fc;strokeColor=#6c8ebf;" parent="1" vertex="1">
          <mxGeometry x="367.5" y="70" width="195" height="90" as="geometry" />
        </mxCell>
        <mxCell id="sDvQVDbW3PLoVkLUSOU8-3" value="2º Equipa Apeada&lt;div&gt;- ECO&lt;/div&gt;&lt;div&gt;-Bala O2&lt;/div&gt;" style="ellipse;whiteSpace=wrap;html=1;fillColor=#dae8fc;strokeColor=#6c8ebf;" parent="1" vertex="1">
          <mxGeometry x="367.5" y="515" width="195" height="70" as="geometry" />
        </mxCell>
        <mxCell id="sDvQVDbW3PLoVkLUSOU8-6" value="" style="endArrow=none;html=1;rounded=0;entryX=0.5;entryY=0;entryDx=0;entryDy=0;exitX=0.5;exitY=1;exitDx=0;exitDy=0;" parent="1" source="sDvQVDbW3PLoVkLUSOU8-1" target="sDvQVDbW3PLoVkLUSOU8-1" edge="1">
          <mxGeometry width="50" height="50" relative="1" as="geometry">
            <mxPoint x="390" y="410" as="sourcePoint" />
            <mxPoint x="440" y="360" as="targetPoint" />
          </mxGeometry>
        </mxCell>
        <mxCell id="sDvQVDbW3PLoVkLUSOU8-7" value="2º Equipa Campo&lt;div&gt;&lt;br&gt;&lt;/div&gt;&lt;div&gt;- Mala Emergência&lt;/div&gt;&lt;div&gt;- 1 Conj. Talas&lt;/div&gt;&lt;div&gt;- 1 Conj. Colares&lt;/div&gt;&lt;div&gt;- 1 Bala O2 (ABSC)&lt;/div&gt;" style="ellipse;whiteSpace=wrap;html=1;aspect=fixed;fillColor=#e1d5e7;strokeColor=#9673a6;" parent="1" vertex="1">
          <mxGeometry x="630" y="300" width="160" height="160" as="geometry" />
        </mxCell>
        <mxCell id="fMaslcLat9-cIDeGKfLT-5" value="ABSC 1" style="rounded=0;whiteSpace=wrap;html=1;fillColor=#fff2cc;strokeColor=#d6b656;" parent="1" vertex="1">
          <mxGeometry x="-90" y="400" width="120" height="60" as="geometry" />
        </mxCell>
        <mxCell id="fMaslcLat9-cIDeGKfLT-6" value="ABSC 2" style="rounded=0;whiteSpace=wrap;html=1;fillColor=#fff2cc;strokeColor=#d6b656;" parent="1" vertex="1">
          <mxGeometry x="860" y="180" width="120" height="60" as="geometry" />
        </mxCell>
        <mxCell id="fMaslcLat9-cIDeGKfLT-7" value="1º Equipa Campo&lt;div&gt;&lt;br&gt;&lt;/div&gt;&lt;div&gt;- Mala Emergência (ABSC)&lt;/div&gt;&lt;div&gt;- 1 Conj. Talas&lt;/div&gt;&lt;div&gt;- 1 Conj. Colares&lt;/div&gt;&lt;div&gt;- 1 Bala O2 (ABSC)&amp;nbsp;&lt;/div&gt;" style="ellipse;whiteSpace=wrap;html=1;aspect=fixed;fillColor=#e1d5e7;strokeColor=#9673a6;" parent="1" vertex="1">
          <mxGeometry x="160" y="302.5" width="155" height="155" as="geometry" />
        </mxCell>
        <mxCell id="fMaslcLat9-cIDeGKfLT-9" value="APOIO MARITIMO&amp;nbsp;&lt;div&gt;Distribuição de Meios&lt;/div&gt;" style="rounded=0;whiteSpace=wrap;html=1;fillColor=#a20025;strokeColor=#6F0000;fontSize=18;fontStyle=1;fontFamily=Arial Black;fontColor=#ffffff;" parent="1" vertex="1">
          <mxGeometry x="212.5" y="-170" width="505" height="60" as="geometry" />
        </mxCell>
        <mxCell id="shpKcNtoOfC2hMuRhVAY-4" value="" style="shape=flexArrow;endArrow=classic;html=1;rounded=0;width=11.764705882352942;endSize=7;fillColor=#fff2cc;strokeColor=#d6b656;" parent="1" edge="1">
          <mxGeometry width="50" height="50" relative="1" as="geometry">
            <mxPoint x="1010" y="209.41" as="sourcePoint" />
            <mxPoint x="1100" y="209.41" as="targetPoint" />
          </mxGeometry>
        </mxCell>
        <mxCell id="shpKcNtoOfC2hMuRhVAY-5" value="" style="shape=flexArrow;endArrow=classic;html=1;rounded=0;width=11.764705882352942;endSize=7;fillColor=#fff2cc;strokeColor=#d6b656;" parent="1" edge="1">
          <mxGeometry width="50" height="50" relative="1" as="geometry">
            <mxPoint x="-110" y="429.82" as="sourcePoint" />
            <mxPoint x="-190" y="429.41" as="targetPoint" />
          </mxGeometry>
        </mxCell>
        <mxCell id="97hCgqZSSvImogX81ykz-1" value="" style="shape=actor;whiteSpace=wrap;html=1;fillColor=#e1d5e7;strokeColor=#9673a6;" vertex="1" parent="1">
          <mxGeometry x="270" y="260" width="22.5" height="40" as="geometry" />
        </mxCell>
        <mxCell id="97hCgqZSSvImogX81ykz-2" value="" style="shape=actor;whiteSpace=wrap;html=1;fillColor=#e1d5e7;strokeColor=#9673a6;" vertex="1" parent="1">
          <mxGeometry x="240" y="260" width="22.5" height="40" as="geometry" />
        </mxCell>
        <mxCell id="97hCgqZSSvImogX81ykz-3" value="" style="shape=actor;whiteSpace=wrap;html=1;fillColor=#e1d5e7;strokeColor=#9673a6;" vertex="1" parent="1">
          <mxGeometry x="210" y="260" width="22.5" height="40" as="geometry" />
        </mxCell>
        <mxCell id="97hCgqZSSvImogX81ykz-4" value="" style="shape=actor;whiteSpace=wrap;html=1;fillColor=#e1d5e7;strokeColor=#9673a6;" vertex="1" parent="1">
          <mxGeometry x="180" y="260" width="22.5" height="40" as="geometry" />
        </mxCell>
        <mxCell id="97hCgqZSSvImogX81ykz-7" value="" style="shape=actor;whiteSpace=wrap;html=1;fillColor=#e1d5e7;strokeColor=#9673a6;" vertex="1" parent="1">
          <mxGeometry x="650" y="260" width="22.5" height="40" as="geometry" />
        </mxCell>
        <mxCell id="97hCgqZSSvImogX81ykz-8" value="" style="shape=actor;whiteSpace=wrap;html=1;fillColor=#e1d5e7;strokeColor=#9673a6;" vertex="1" parent="1">
          <mxGeometry x="680" y="260" width="22.5" height="40" as="geometry" />
        </mxCell>
        <mxCell id="97hCgqZSSvImogX81ykz-9" value="" style="shape=actor;whiteSpace=wrap;html=1;fillColor=#e1d5e7;strokeColor=#9673a6;" vertex="1" parent="1">
          <mxGeometry x="710" y="260" width="22.5" height="40" as="geometry" />
        </mxCell>
        <mxCell id="97hCgqZSSvImogX81ykz-10" value="" style="shape=actor;whiteSpace=wrap;html=1;fillColor=#e1d5e7;strokeColor=#9673a6;" vertex="1" parent="1">
          <mxGeometry x="740" y="260" width="22.5" height="40" as="geometry" />
        </mxCell>
        <mxCell id="97hCgqZSSvImogX81ykz-11" value="" style="shape=actor;whiteSpace=wrap;html=1;fillColor=#dae8fc;strokeColor=#6c8ebf;" vertex="1" parent="1">
          <mxGeometry x="430" y="475" width="22.5" height="40" as="geometry" />
        </mxCell>
        <mxCell id="97hCgqZSSvImogX81ykz-12" value="" style="shape=actor;whiteSpace=wrap;html=1;fillColor=#dae8fc;strokeColor=#6c8ebf;" vertex="1" parent="1">
          <mxGeometry x="480" y="475" width="22.5" height="40" as="geometry" />
        </mxCell>
        <mxCell id="97hCgqZSSvImogX81ykz-13" value="" style="shape=actor;whiteSpace=wrap;html=1;fillColor=#dae8fc;strokeColor=#6c8ebf;" vertex="1" parent="1">
          <mxGeometry x="430" y="30" width="22.5" height="40" as="geometry" />
        </mxCell>
        <mxCell id="97hCgqZSSvImogX81ykz-14" value="" style="shape=actor;whiteSpace=wrap;html=1;fillColor=#dae8fc;strokeColor=#6c8ebf;" vertex="1" parent="1">
          <mxGeometry x="470" y="30" width="22.5" height="40" as="geometry" />
        </mxCell>
        <mxCell id="97hCgqZSSvImogX81ykz-25" value="" style="shape=mxgraph.signs.transportation.ambulance;html=1;pointerEvents=1;fillColor=#000000;strokeColor=none;verticalLabelPosition=bottom;verticalAlign=top;align=center;sketch=0;" vertex="1" parent="1">
          <mxGeometry x="880" y="246" width="99" height="68" as="geometry" />
        </mxCell>
        <mxCell id="97hCgqZSSvImogX81ykz-27" value="" style="shape=mxgraph.signs.transportation.ambulance;html=1;pointerEvents=1;fillColor=#000000;strokeColor=none;verticalLabelPosition=bottom;verticalAlign=top;align=center;sketch=0;" vertex="1" parent="1">
          <mxGeometry x="-69" y="475" width="99" height="68" as="geometry" />
        </mxCell>
      </root>
    </mxGraphModel>
  </diagram>
  <diagram id="H2d-Ij2R5lEtdpxusQfm" name="Praia - Seleção A">
    <mxGraphModel dx="2214" dy="1926" grid="1" gridSize="10" guides="1" tooltips="1" connect="1" arrows="1" fold="1" page="1" pageScale="1" pageWidth="827" pageHeight="1169" math="0" shadow="0">
      <root>
        <mxCell id="0" />
        <mxCell id="1" parent="0" />
        <mxCell id="bgf0kmuH75FIEG43SdDh-1" value="" style="rounded=0;whiteSpace=wrap;html=1;fillColor=#fff2cc;strokeColor=#d6b656;" parent="1" vertex="1">
          <mxGeometry x="100" y="180" width="730" height="280" as="geometry" />
        </mxCell>
        <mxCell id="bgf0kmuH75FIEG43SdDh-4" value="" style="endArrow=none;html=1;rounded=0;entryX=0.5;entryY=0;entryDx=0;entryDy=0;exitX=0.5;exitY=1;exitDx=0;exitDy=0;" parent="1" source="bgf0kmuH75FIEG43SdDh-1" target="bgf0kmuH75FIEG43SdDh-1" edge="1">
          <mxGeometry width="50" height="50" relative="1" as="geometry">
            <mxPoint x="390" y="410" as="sourcePoint" />
            <mxPoint x="440" y="360" as="targetPoint" />
          </mxGeometry>
        </mxCell>
        <mxCell id="bgf0kmuH75FIEG43SdDh-5" value="2º Equipa Campo&lt;div&gt;&lt;br&gt;&lt;/div&gt;&lt;div&gt;- Mala Emergência&lt;/div&gt;&lt;div&gt;- 1 Conj. Talas&lt;/div&gt;&lt;div&gt;- 1 Conj. Colares&lt;/div&gt;&lt;div&gt;- 1 Bala O2&lt;/div&gt;" style="ellipse;whiteSpace=wrap;html=1;aspect=fixed;fillColor=#e1d5e7;strokeColor=#9673a6;" parent="1" vertex="1">
          <mxGeometry x="660" y="310" width="150" height="150" as="geometry" />
        </mxCell>
        <mxCell id="bgf0kmuH75FIEG43SdDh-10" value="ABSC" style="rounded=0;whiteSpace=wrap;html=1;fillColor=#d5e8d4;strokeColor=#82b366;" parent="1" vertex="1">
          <mxGeometry x="-90" y="400" width="120" height="60" as="geometry" />
        </mxCell>
        <mxCell id="bgf0kmuH75FIEG43SdDh-11" value="ABSC" style="rounded=0;whiteSpace=wrap;html=1;fillColor=#d5e8d4;strokeColor=#82b366;" parent="1" vertex="1">
          <mxGeometry x="860" y="180" width="120" height="60" as="geometry" />
        </mxCell>
        <mxCell id="bgf0kmuH75FIEG43SdDh-12" value="1º Equipa Campo&lt;div&gt;&lt;br&gt;&lt;/div&gt;&lt;div&gt;- Mala Emergência (ABSC)&lt;/div&gt;&lt;div&gt;- 1 Conj. Talas&lt;/div&gt;&lt;div&gt;- 1 Conj. Colares&lt;/div&gt;&lt;div&gt;- 1 Bala O2 (ABSC)&amp;nbsp;&lt;/div&gt;" style="ellipse;whiteSpace=wrap;html=1;aspect=fixed;fillColor=#e1d5e7;strokeColor=#9673a6;" parent="1" vertex="1">
          <mxGeometry x="170" y="310" width="150" height="150" as="geometry" />
        </mxCell>
        <mxCell id="bgf0kmuH75FIEG43SdDh-13" value="APOIO Seleção A - Praia&lt;div&gt;Distribuição de Meios&lt;/div&gt;" style="rounded=0;whiteSpace=wrap;html=1;fillColor=#f8cecc;strokeColor=#b85450;fontSize=18;fontStyle=1;fontFamily=Arial Black;" parent="1" vertex="1">
          <mxGeometry x="212.5" y="-110" width="505" height="60" as="geometry" />
        </mxCell>
      </root>
    </mxGraphModel>
  </diagram>
</mxfile>
